<svg width="189" height="47" viewBox="0 0 189 47" fill="none" xmlns="http://www.w3.org/2000/svg">
<path d="M38.3109 22.2402C39.6585 23.1707 41.2307 23.62 42.9634 23.62C46.3966 23.62 48.1293 22.144 48.1293 19.1921C48.1293 16.9781 46.6854 15.3096 43.7976 14.2187C42.0008 13.577 40.6532 12.7748 39.7869 11.8764C38.8243 10.9138 38.343 9.72664 38.3109 8.31485C38.3109 6.74263 38.8885 5.45918 40.0436 4.43243C41.1987 3.40567 42.7067 2.92437 44.5035 2.89229C45.434 2.89229 46.3004 2.98855 47.1025 3.21315C47.7763 3.37358 48.3218 3.59818 48.7389 3.88696L48.1614 5.17041C47.8084 4.91372 47.3271 4.68911 46.7496 4.4966C45.9795 4.27199 45.2094 4.14365 44.3752 4.14365C42.803 4.14365 41.6158 4.59286 40.7815 5.49127C40.1077 6.19716 39.7548 7.06349 39.7548 8.05816C39.7548 10.0796 41.2307 11.6518 44.1827 12.8069C46.0437 13.577 47.3913 14.3791 48.1934 15.2455C49.0919 16.2401 49.5731 17.4915 49.5731 18.9995C49.5731 20.6359 49.0277 22.0156 47.9047 23.0745C46.6854 24.2617 44.9848 24.8392 42.803 24.8392C40.6853 24.8392 38.9847 24.3579 37.7013 23.4274L38.3109 22.2402Z" fill="#444545"/>
<path d="M53.1989 2.02596H54.7069V12.0689H54.7711C55.2203 11.1705 55.9262 10.4325 56.8246 9.88707C57.7872 9.30951 58.8139 8.98865 59.9049 8.98865C60.3541 8.98865 60.8354 9.05282 61.3167 9.18117C61.9584 9.37369 62.568 9.66246 63.0493 10.0796C63.691 10.5609 64.2044 11.2026 64.5253 12.0048C64.9424 12.9353 65.167 14.0583 65.167 15.4059V24.5504H63.659V15.5663C63.659 14.0583 63.3381 12.839 62.7285 11.9406C62.0226 10.8817 60.9316 10.3684 59.4557 10.3684C57.2096 10.3684 55.6695 11.5235 54.8673 13.8016C54.739 14.1866 54.6748 14.7 54.6748 15.3096V24.5825H53.1668L53.1989 2.02596Z" fill="#444545"/>
<path d="M74.0549 8.79614H74.3437C76.6218 8.79614 78.194 9.79081 78.9962 11.7802C79.3491 12.6786 79.5095 13.7053 79.5095 14.8283V20.9247C79.5095 22.4969 79.5737 23.7162 79.7341 24.5504L79.7021 24.5825H78.3865C78.3223 24.5825 78.2903 24.3258 78.2582 23.7804L78.0977 22.3686H78.0015C77.4239 23.2028 76.8143 23.7804 76.1726 24.0692C75.2742 24.6467 74.2474 24.9355 73.0602 24.9355C70.9425 24.9355 69.4986 24.005 68.7607 22.0798C68.6323 21.5985 68.5681 21.1493 68.5681 20.7964V20.5397C68.5681 18.6145 69.5949 17.1385 71.6163 16.1118C72.8035 15.6305 73.5736 15.3738 73.9586 15.3738C74.9533 15.1813 75.7875 15.085 76.4293 15.085H76.4613V16.3043L76.3972 16.3685C74.8249 16.3685 73.3811 16.6893 72.0014 17.3631C70.8142 18.1011 70.2045 19.0958 70.2045 20.3151V20.6039C70.2045 21.8873 70.75 22.8178 71.8409 23.3633C72.2901 23.5879 72.7714 23.6841 73.2527 23.6841C75.0496 23.6841 76.4293 22.9461 77.3598 21.4702C77.7448 20.8605 77.9694 20.2188 77.9694 19.5771V14.9567C77.9694 12.454 77.1993 10.9459 75.6913 10.4325C75.21 10.2721 74.6645 10.1758 74.119 10.1758H74.0228C72.5789 10.1758 71.2634 10.5609 70.1725 11.331C70.1404 11.331 69.9478 10.978 69.6591 10.2079C71.0067 9.24535 72.4827 8.79614 74.0549 8.79614Z" fill="#444545"/>
<path d="M83.8412 13.8978C83.8412 12.1973 83.8091 10.6571 83.7128 9.3416H85.0925L85.1567 12.4219H85.253C86.023 10.1438 87.4669 8.98866 89.5525 8.98866C89.6488 8.98866 89.7771 8.98865 89.8734 9.02074C89.9696 9.02074 90.098 9.02074 90.1942 9.05283V10.4646C90.098 10.4325 89.9696 10.4325 89.8413 10.4325H89.4563C87.2744 10.4325 85.9589 11.8443 85.4776 14.6679C85.3813 15.0529 85.3492 15.5663 85.3492 16.1118V24.5184H83.8412V13.8978Z" fill="#444545"/>
<path d="M100.879 8.47528H101.232C103.285 8.47528 104.986 9.40578 106.301 11.2668C107.232 12.6786 107.713 14.315 107.713 16.208V16.3364C107.713 19.93 106.398 22.4648 103.767 23.9408C102.804 24.39 101.777 24.6146 100.686 24.6146C99.2746 24.6146 98.0232 24.2296 96.9323 23.4595V21.8873H96.9644C98.0232 22.8499 99.2425 23.3312 100.654 23.3312C102.868 23.3312 104.473 22.2402 105.467 20.0584C105.916 18.9354 106.173 17.7161 106.173 16.3364C106.173 14.3791 105.596 12.7107 104.473 11.3951C103.446 10.3042 102.227 9.79081 100.783 9.79081H100.686C99.1142 9.79081 97.7666 10.4967 96.6114 11.8764C96.066 12.5502 95.6809 13.4807 95.4563 14.7C95.4243 14.8604 95.4243 15.0529 95.4243 15.2775V30.5826L95.3601 30.6468H93.9483L93.8841 30.5826L93.852 14.2508C93.852 12.0689 93.82 10.2721 93.7237 8.86031H93.7558H95.1676L95.1997 8.8924L95.2959 11.7802H95.3601C96.0018 10.4646 97.1248 9.50204 98.7612 8.82823C99.5634 8.60362 100.269 8.47528 100.879 8.47528Z" fill="#444545"/>
<path d="M110.376 22.144C111.724 23.0745 113.296 23.5237 115.029 23.5237C118.462 23.5237 120.195 22.0477 120.195 19.0958C120.195 16.8818 118.751 15.2134 115.863 14.1224C114.066 13.4807 112.719 12.6786 111.852 11.7801C110.89 10.8176 110.376 9.63037 110.376 8.21858C110.376 6.64636 110.954 5.36291 112.109 4.33616C113.264 3.3094 114.772 2.82811 116.569 2.79602C117.5 2.79602 118.366 2.89228 119.168 3.11688C119.842 3.27731 120.387 3.50192 120.804 3.79069L120.227 5.07414C119.874 4.81745 119.393 4.59285 118.815 4.40033C118.045 4.17573 117.275 4.04738 116.441 4.04738C114.869 4.04738 113.681 4.49659 112.815 5.395C112.141 6.1009 111.788 6.96722 111.82 7.96189C111.82 9.98332 113.296 11.5555 116.248 12.7106C118.109 13.4807 119.457 14.2829 120.291 15.1492C121.189 16.1439 121.639 17.3952 121.671 18.9033C121.671 20.5397 121.125 21.9194 120.002 22.9782C118.783 24.1654 117.082 24.743 114.901 24.743C112.783 24.743 111.082 24.2617 109.799 23.3312L110.376 22.144Z" fill="#444545"/>
<path d="M131.874 8.44319H132.227C134.281 8.44319 135.981 9.37369 137.297 11.2347C138.227 12.6465 138.709 14.2829 138.709 16.176V16.3043C138.709 19.898 137.393 22.4328 134.762 23.9087C133.799 24.3579 132.773 24.5825 131.682 24.5825C130.27 24.5825 129.018 24.1975 127.928 23.4274V21.8552H127.96C129.018 22.8178 130.238 23.2991 131.65 23.2991C133.864 23.2991 135.468 22.2082 136.462 20.0263C136.944 18.9033 137.168 17.684 137.168 16.3043C137.168 14.347 136.591 12.6786 135.468 11.363C134.441 10.2721 133.222 9.75872 131.778 9.75872H131.682C130.109 9.75872 128.762 10.4646 127.607 11.8443C127.061 12.5181 126.676 13.4486 126.484 14.6679C126.452 14.8283 126.452 15.0209 126.452 15.2455V30.5506L126.387 30.6147H124.976L124.911 30.5506L124.879 14.2508C124.879 12.0689 124.847 10.2721 124.751 8.86031H124.783H126.195L126.227 8.8924L126.323 11.7802H126.387C127.029 10.4646 128.152 9.50203 129.789 8.82822C130.527 8.57154 131.232 8.44319 131.874 8.44319Z" fill="#444545"/>
<path d="M142.43 13.8337C142.43 12.1331 142.398 10.593 142.302 9.27743H143.682L143.746 12.3577H143.842C144.612 10.0796 146.056 8.92448 148.142 8.92448C148.238 8.92448 148.366 8.92448 148.463 8.95657C148.559 8.95657 148.687 8.95657 148.784 8.98866V10.4004C148.687 10.3684 148.559 10.3684 148.431 10.3684H148.046C145.864 10.3684 144.548 11.7802 144.067 14.6037C143.971 15.0209 143.939 15.5021 143.939 16.0476V24.4542H142.43V13.8337Z" fill="#444545"/>
<path d="M152.698 6.22924C151.928 6.22924 151.511 5.81212 151.511 4.94579C151.511 4.04738 151.928 3.59818 152.73 3.59818C153.532 3.59818 153.949 4.04738 153.949 4.91371C153.982 5.78004 153.564 6.19715 152.698 6.22924ZM152.024 24.4542V9.24534H153.532V24.4542H152.024Z" fill="#444545"/>
<path d="M158.634 12.9032C158.634 11.5556 158.602 10.3363 158.506 9.24535H159.917L160.014 11.9727H160.078C161.073 9.91916 162.805 8.8924 165.308 8.8924C165.789 8.8924 166.271 8.95657 166.752 9.08492C167.394 9.27744 168.003 9.56621 168.484 9.98333C169.126 10.4967 169.64 11.1384 169.96 11.9085C170.378 12.8711 170.602 13.9941 170.602 15.3417V24.4542H169.094V15.4701C169.094 13.9299 168.773 12.6786 168.164 11.7802C167.426 10.7213 166.335 10.2079 164.859 10.2079C162.516 10.2079 161.008 11.3951 160.303 13.7374C160.174 14.1866 160.11 14.6358 160.11 15.0529V24.4863H158.602L158.634 12.9032Z" fill="#444545"/>
<path d="M181.126 8.69988H181.415C183.597 8.69988 185.233 9.5983 186.324 11.4272C186.356 11.5235 186.421 11.6197 186.485 11.6518H186.517C186.549 9.91916 186.613 9.05283 186.645 9.05283H187.961L187.993 9.08492H188.025C187.929 10.0475 187.897 11.2347 187.897 12.7107V22.0477C187.897 25.4168 187.319 27.6949 186.164 28.9463C185.522 29.6522 184.88 30.1014 184.303 30.358C183.18 30.9356 181.929 31.2244 180.581 31.2244C178.656 31.2244 177.019 30.7752 175.672 29.9088V29.8447C176.025 29.0425 176.185 28.6254 176.217 28.6254C177.565 29.4596 179.009 29.8768 180.549 29.8768H180.645L180.773 29.9088L180.934 29.8768H181.094C182.859 29.8768 184.271 29.235 185.266 27.9516C185.683 27.3419 186.003 26.5719 186.196 25.6735C186.324 25.0317 186.389 24.1012 186.389 22.9141V15.438C186.389 14.1545 186.196 13.2561 185.843 12.7748C184.848 10.9459 183.372 10.0154 181.383 10.0154C179.33 10.0154 177.757 11.0101 176.699 12.9994C176.185 14.0904 175.896 15.3417 175.896 16.8177C175.896 19.0637 176.602 20.8285 178.046 22.1119C178.977 22.8499 180.068 23.2349 181.351 23.2028C182.634 23.2028 183.79 22.7215 184.848 21.7269H184.88V23.2028C183.854 24.0371 182.538 24.4863 180.966 24.4863C179.073 24.4863 177.501 23.7483 176.217 22.2402C174.998 20.7322 174.388 18.9995 174.388 17.0423V16.7535C174.388 14.2187 175.19 12.1331 176.827 10.5288C178.11 9.30952 179.554 8.69988 181.126 8.69988Z" fill="#444545"/>
<path d="M3.36902 20.0797C3.20859 20.2722 2.88773 19.7267 2.88773 19.7267C2.27809 18.6037 2.11766 17.0957 1.89306 15.8443C1.54011 13.9192 1.31551 11.9619 1.25134 10.0046L1.21925 10.2292C1.21925 10.133 1.25134 10.0688 1.25134 10.0046C0.320838 12.3148 0.0641479 17.1919 0.0641479 17.1919C0.0641479 17.1919 0.12832 20.3685 1.05882 20.6893C1.12299 20.7214 1.18716 20.6893 1.25134 20.6893C1.95723 20.561 2.63104 20.208 3.36902 20.0797Z" fill="#84C340"/>
<path d="M1.25136 10.0046C1.25136 10.0688 1.21927 10.133 1.21927 10.2292L1.25136 10.0046ZM1.60431 20.5931C1.41179 20.4326 1.25136 20.1439 1.1551 19.9193C1.02676 19.5984 0.898413 19.2455 0.83424 18.9246C0.67381 18.2508 0.513379 17.577 0.449207 16.9032C0.385034 16.1331 0.385034 15.3951 0.41712 14.625C0.41712 14.4004 0.449207 14.1758 0.449207 13.9512C0.577551 12.6036 0.802155 11.3202 1.25136 10.0367C0.320862 12.3469 0 14.7534 0 17.224C0 17.224 0 17.2561 0 17.2882C0.0320862 17.962 0.192517 20.1118 0.866327 20.7214C1.09093 20.8818 1.28345 20.7214 1.60431 20.5931Z" fill="#1E8B46"/>
<path d="M29.1984 25.9515C28.9096 25.5344 28.3642 24.668 28.3642 24.668L27.4979 23.2883C27.4979 23.2883 26.2786 22.7749 25.6689 22.4541C26.1823 23.2562 26.6315 24.4113 27.4337 24.9568C28.0754 25.3739 28.7171 25.8231 29.3589 26.2402C29.3268 26.144 29.2626 26.0477 29.1984 25.9515C29.1343 25.8552 29.2626 26.0477 29.1984 25.9515Z" fill="#1E8B46"/>
<path d="M19.0913 30.8286C15.0484 29.3847 13.6045 23.7696 12.8024 20.0797C11.6794 14.8817 11.3264 9.36293 11.8719 4.03662C10.043 4.03662 8.21405 4.03662 6.35305 4.03662C5.64716 9.97256 5.93593 16.3577 7.34772 22.1332C7.95736 24.6359 8.7916 27.5558 10.7489 29.3205C11.8719 30.3473 13.5724 30.6361 15.0163 30.8927C17.0698 31.2457 19.0592 31.2136 21.1127 30.9569C20.4389 31.1173 19.733 31.0532 19.0913 30.8286C12.7703 28.5825 19.733 31.0532 19.0913 30.8286Z" fill="#84C340"/>
<path d="M16.4923 32.2083C15.9789 31.8232 15.5297 31.0532 14.9201 30.9248C16.2677 29.5772 17.1982 27.8446 18.0004 26.1119C18.4175 25.2135 18.8025 24.3151 19.1555 23.4167C19.3159 23.0316 19.7009 22.5824 19.4442 22.2616C19.2517 22.037 18.9629 21.9086 18.7704 21.6519C18.0324 23.6092 17.1982 25.5985 16.0431 27.3312C15.2089 28.5504 13.8292 30.1868 12.1286 29.9622C11.0377 29.866 10.1713 28.7109 9.62586 27.9087C8.75954 26.6574 8.21407 25.1814 7.76487 23.7375C6.73811 20.3685 6.32099 16.8069 6.16056 13.3095C6.00013 10.2613 6.00013 7.11689 6.35307 4.03662C7.63652 4.03662 8.91997 4.03662 10.2355 4.03662C10.4601 4.03662 10.6847 4.03662 10.9093 4.03662C11.1018 4.03662 11.1981 2.97777 11.2623 2.75317C11.4869 1.85476 11.6794 0.603398 12.5778 0.0900192C11.1981 0.507139 10.043 0.860087 8.79162 1.56598C8.11781 1.91893 7.47609 2.30396 6.86645 2.75317C6.57768 3.07403 6.12847 3.39489 5.8397 3.68367C5.1338 5.25589 5.03754 7.46984 4.97337 9.13832C4.71668 15.1384 4.94128 21.7482 7.15523 27.3953C7.82904 29.0959 8.75954 30.9248 10.3638 31.9516C11.6473 32.7537 13.4762 33.0425 14.9522 33.235C16.6527 33.4596 18.61 33.2029 17.9362 32.9463C16.9094 32.6254 16.9415 32.5291 16.4923 32.2083Z" fill="#1E8B46"/>
<path d="M24.9309 0.635483C24.3855 1.5339 23.5833 2.46439 23.3587 3.49115C22.8132 6.05804 21.6581 8.59285 20.5993 10.9672C19.3158 13.855 17.872 16.6786 16.1393 19.3096C15.3051 20.561 14.4067 21.7803 13.3799 22.9033C13.059 23.2562 12.7703 23.4808 12.6419 23.93C12.5457 24.2188 12.4494 24.5076 12.3531 24.7964C15.8505 21.3311 18.3533 16.8069 20.4709 12.379C21.5619 10.133 22.5566 7.82278 23.4229 5.48049C23.7758 4.51791 24.1288 3.55532 24.4496 2.56065C24.6101 2.04727 25.0593 1.14886 24.9309 0.635483Z" fill="#1E8B46"/>
<path d="M13.3478 6.09013C13.4441 4.48582 13.5083 2.81734 13.2516 1.24512C13.1874 0.763825 13.0912 -0.166673 12.4494 0.0258439C11.9361 0.186275 11.4227 0.346705 10.9093 0.539222C9.62585 1.0526 8.40658 1.66224 7.25147 2.46439C6.83435 2.75317 6.44932 3.07403 6.09637 3.39489C5.90386 3.55532 5.90386 3.55532 5.8076 3.71575C5.74342 3.8441 5.8076 4.22913 5.8076 4.51791C5.58299 8.43242 4.49206 12.379 3.36905 16.101C2.98401 17.4486 2.56689 19.5984 1.44388 20.5289C0.41712 21.3952 0.0320862 17.6091 0 17.1599C0.160431 19.8551 0.866327 22.5503 2.27812 24.8605C2.88776 25.8552 3.56157 27.2349 4.71667 27.6841C6.06429 28.2296 7.25147 26.9141 7.92528 25.9194C9.78628 23.2562 10.781 19.8872 11.5831 16.7748C12.4815 13.3416 13.1232 9.71587 13.3478 6.09013C13.3799 5.64092 13.2195 8.30407 13.3478 6.09013Z" fill="#DDDDDC"/>
<path d="M29.9043 20.4006C29.8401 16.8711 29.3267 13.3416 28.4925 9.90839C27.7224 6.69977 26.6957 3.42698 24.9309 0.635483C25.0593 1.08469 24.6742 1.85476 24.5459 2.27188C24.2571 3.26655 23.9042 4.22913 23.5512 5.19172C22.6849 7.53401 21.7223 9.81213 20.6314 12.0582C18.4816 16.5823 15.9468 21.2027 12.3852 24.7643C14.8559 24.3151 17.1661 23.545 19.4763 22.5824C18.642 24.8285 17.7115 27.0745 16.396 29.0638C15.2088 30.8607 13.2516 33.0746 10.8451 32.2404C11.9039 32.8179 14.15 33.2671 16.2677 33.3634C18.0324 33.4596 20.0538 33.3955 21.626 32.497C24.7705 30.7002 26.4711 26.7536 27.6582 23.5129C28.2358 24.4113 28.7813 25.3418 29.3909 26.2402C29.7759 24.6359 29.9364 22.6145 29.9043 20.4006C29.8722 18.1866 29.9364 22.6145 29.9043 20.4006Z" fill="#DEDDDD"/>
<path fill-rule="evenodd" clip-rule="evenodd" d="M146.377 41.0748C146.185 40.7861 145.928 40.7219 145.575 40.9144C145.029 41.2032 144.388 41.3957 143.746 41.3957C141.917 41.3957 140.634 40.1443 140.634 38.3154C140.634 36.4865 141.917 35.2351 143.746 35.2351C144.388 35.2351 145.029 35.3956 145.575 35.7164C145.928 35.9089 146.185 35.8769 146.377 35.556L146.57 35.2672C146.762 34.9464 146.73 34.6576 146.441 34.4651C145.639 33.9196 144.773 33.695 143.746 33.695C142.302 33.695 141.051 34.1763 140.152 35.0747C139.318 35.9089 138.837 37.0961 138.837 38.3475C138.837 39.5989 139.286 40.754 140.152 41.6203C141.051 42.5187 142.302 43 143.746 43C144.805 43 145.671 42.7433 146.505 42.1658C146.762 41.9732 146.794 41.7165 146.57 41.3957L146.377 41.0748ZM150.709 36.1336C148.719 36.1336 147.179 37.6416 147.179 39.5668C147.179 41.4919 148.719 43 150.709 43C152.698 43 154.27 41.4919 154.27 39.5668C154.238 37.6737 152.666 36.1336 150.709 36.1336ZM150.709 37.6095C151.768 37.6095 152.57 38.4758 152.57 39.5668C152.57 40.6577 151.735 41.524 150.709 41.524C149.682 41.524 148.848 40.6577 148.848 39.5668C148.848 38.4758 149.65 37.6095 150.709 37.6095ZM159.083 36.1336C158.153 36.1336 157.415 36.5507 157.062 37.2566V36.8715C157.062 36.4865 156.837 36.294 156.484 36.294H155.939C155.586 36.294 155.361 36.5186 155.361 36.8715V42.262C155.361 42.615 155.586 42.8396 155.939 42.8396H156.484C156.869 42.8396 157.062 42.615 157.062 42.262V39.6309C157.062 38.9251 157.415 37.6095 158.698 37.6095C159.404 37.6095 159.821 38.1871 159.821 39.1817V42.262C159.821 42.615 160.046 42.8396 160.399 42.8396H160.944C161.329 42.8396 161.522 42.615 161.522 42.262V39.0855C161.554 37.2566 160.623 36.1336 159.083 36.1336ZM174.356 36.2619H173.811C173.458 36.2619 173.233 36.4865 173.233 36.8394V37.1282C172.72 36.4544 171.982 36.1015 171.083 36.1015C169.222 36.1015 167.875 37.5453 167.875 39.5347C167.875 41.524 169.222 42.9679 171.083 42.9679C171.982 42.9679 172.72 42.615 173.233 41.9412V42.2299C173.233 42.5829 173.458 42.8075 173.811 42.8075H174.356C174.741 42.8075 174.934 42.5829 174.934 42.2299V36.8394C174.934 36.4865 174.741 36.2619 174.356 36.2619ZM171.372 41.524C170.313 41.524 169.575 40.7219 169.575 39.5668C169.575 38.4117 170.313 37.6095 171.372 37.6095C172.463 37.6095 173.201 38.4117 173.233 39.5668C173.233 40.7219 172.463 41.524 171.372 41.524ZM179.875 37.6095C180.1 37.6095 180.549 37.6416 180.966 37.8662C181.319 38.0266 181.576 37.9946 181.768 37.7058L181.929 37.5133C182.057 37.3528 182.089 37.1924 182.057 37.0641C182.025 36.9357 181.929 36.8074 181.768 36.7111C180.998 36.2619 180.26 36.1656 179.747 36.1656C177.533 36.1656 175.993 37.6095 175.993 39.6309C175.993 41.6203 177.533 43 179.747 43C180.196 43 180.902 42.9037 181.608 42.5508C181.832 42.4224 181.961 42.2941 182.025 42.1016C182.057 41.9412 182.025 41.7807 181.929 41.6524L181.768 41.4599C181.576 41.2032 181.319 41.139 180.966 41.3315C180.453 41.5561 179.971 41.5882 179.875 41.5882C178.656 41.5882 177.789 40.754 177.789 39.6309C177.757 38.4117 178.656 37.6095 179.875 37.6095ZM187.768 41.6845L187.351 41.1711C187.287 41.1069 187.223 41.0427 187.127 41.0427C187.03 41.0427 186.966 41.0748 186.87 41.1711C186.838 41.2032 186.838 41.2032 186.806 41.2353C186.742 41.2994 186.549 41.4599 186.292 41.524C186.196 41.5561 186.132 41.5561 186.036 41.5561C185.651 41.524 185.458 41.2673 185.458 40.786V37.6416H187.03C187.255 37.6416 187.383 37.5133 187.383 37.2887V36.6148C187.383 36.4223 187.255 36.2619 187.03 36.2619H185.458V35.6843V35.0426C185.458 34.6897 185.266 34.4651 184.881 34.4651H184.335C183.982 34.4651 183.757 34.6897 183.757 35.0426V36.2619H183.084C182.891 36.2619 182.731 36.3902 182.731 36.6148V37.2887C182.731 37.5133 182.859 37.6416 183.084 37.6416H183.757V38.2192V40.7219C183.757 42.7112 185.137 43 185.971 43C186.26 43 186.517 42.9679 186.742 42.9037C186.87 42.8717 186.998 42.8075 187.094 42.7433C187.287 42.647 187.447 42.5187 187.576 42.3904C187.64 42.3262 187.736 42.2299 187.8 42.1337C187.897 42.0053 187.897 41.8449 187.768 41.6845ZM167.297 41.6845L166.88 41.1711C166.816 41.1069 166.752 41.0427 166.656 41.0427C166.559 41.0427 166.495 41.0748 166.399 41.1711C166.367 41.2032 166.367 41.2032 166.335 41.2353C166.271 41.2994 166.078 41.4599 165.821 41.524C165.725 41.5561 165.661 41.5561 165.565 41.5561C165.18 41.524 164.987 41.2673 164.987 40.786V37.6416H166.559C166.784 37.6416 166.912 37.5133 166.912 37.2887V36.6148C166.912 36.4223 166.784 36.2619 166.559 36.2619H164.987V35.6843V35.0426C164.987 34.6897 164.795 34.4651 164.41 34.4651H163.864C163.511 34.4651 163.287 34.6897 163.287 35.0426V36.2619H162.613C162.42 36.2619 162.26 36.3902 162.26 36.6148V37.2887C162.26 37.5133 162.388 37.6416 162.613 37.6416H163.287V38.2192V40.7219C163.287 42.7112 164.666 43 165.5 43C165.789 43 166.046 42.9679 166.271 42.9037C166.399 42.8717 166.527 42.8075 166.623 42.7433C166.816 42.647 166.976 42.5187 167.105 42.3904C167.169 42.3262 167.265 42.2299 167.329 42.1337C167.426 42.0053 167.426 41.8449 167.297 41.6845ZM87.1781 41.0748C86.9856 40.7861 86.7289 40.7219 86.376 40.9144C85.8305 41.2032 85.1888 41.3957 84.5471 41.3957C82.7181 41.3957 81.4347 40.1443 81.4347 38.3154C81.4347 36.4865 82.7181 35.2351 84.5471 35.2351C85.1888 35.2351 85.8305 35.3956 86.376 35.7164C86.7289 35.9089 86.9856 35.8769 87.1781 35.556L87.3706 35.2672C87.5632 34.9464 87.5311 34.6576 87.2423 34.4651C86.4401 33.9196 85.5738 33.695 84.5471 33.695C83.1032 33.695 81.8518 34.1763 80.9534 35.0747C80.1192 35.9089 79.6379 37.0961 79.6379 38.3475C79.6379 39.5989 80.0871 40.754 80.9534 41.6203C81.8518 42.5187 83.1032 43 84.5471 43C85.6059 43 86.4722 42.7433 87.3065 42.1658C87.5632 41.9732 87.5952 41.7165 87.3706 41.3957L87.1781 41.0748ZM91.4777 36.1336C89.4883 36.1336 87.9482 37.6416 87.9482 39.5668C87.9482 41.4919 89.4883 43 91.4777 43C93.467 43 95.0392 41.4919 95.0392 39.5668C95.0392 37.6416 93.4349 36.1336 91.4777 36.1336ZM91.4777 37.5774C92.5365 37.5774 93.3387 38.4438 93.3387 39.5347C93.3387 40.6256 92.5044 41.4919 91.4777 41.4919C90.4188 41.4919 89.6167 40.6256 89.6167 39.5347C89.6167 38.4438 90.4509 37.5774 91.4777 37.5774ZM99.8522 36.1336C98.9217 36.1336 98.1837 36.5507 97.8307 37.2566V36.8715C97.8307 36.4865 97.6061 36.294 97.2532 36.294H96.7077C96.3548 36.294 96.1302 36.5186 96.1302 36.8715V42.262C96.1302 42.615 96.3548 42.8396 96.7077 42.8396H97.2532C97.6382 42.8396 97.8307 42.615 97.8307 42.262V39.6309C97.8307 38.9251 98.1837 37.6095 99.4671 37.6095C100.173 37.6095 100.59 38.1871 100.59 39.1817V42.262C100.59 42.615 100.815 42.8396 101.168 42.8396H101.713C102.098 42.8396 102.291 42.615 102.291 42.262V39.0855C102.323 37.2245 101.392 36.1336 99.8522 36.1336ZM106.622 38.9892L105.756 38.6684C105.339 38.54 105.114 38.3475 105.114 38.0587C105.114 37.6737 105.435 37.417 105.852 37.417C106.141 37.417 106.366 37.5133 106.526 37.7058C106.751 37.9304 106.943 38.0587 107.232 37.9625L107.521 37.8983C107.745 37.8341 107.874 37.7379 107.938 37.5774C108.002 37.4491 107.97 37.2887 107.874 37.1282C107.457 36.4223 106.783 36.0694 105.82 36.0694C104.473 36.0694 103.478 36.9357 103.478 38.0908C103.478 38.9571 104.055 39.5989 105.243 39.9518L106.077 40.2406C106.558 40.401 106.751 40.5935 106.751 40.8823C106.751 41.2673 106.366 41.5561 105.852 41.5561C105.435 41.5561 105.05 41.3957 104.826 41.1069C104.601 40.8502 104.44 40.6898 104.12 40.786L103.799 40.8502C103.606 40.9144 103.446 41.0107 103.382 41.139C103.317 41.2673 103.317 41.4278 103.414 41.5882C103.831 42.4224 104.729 42.9037 105.884 42.9037C107.617 42.9037 108.387 41.877 108.387 40.8823C108.355 40.3048 108.034 39.4384 106.622 38.9892ZM120.804 36.2619H120.227C119.874 36.2619 119.649 36.4865 119.649 36.8394V37.1282C119.136 36.4544 118.398 36.1015 117.5 36.1015C115.639 36.1015 114.291 37.5453 114.291 39.5347C114.291 41.524 115.639 42.9679 117.5 42.9679C118.398 42.9679 119.136 42.615 119.649 41.9412V42.2299C119.649 42.5829 119.874 42.8075 120.227 42.8075H120.772C121.157 42.8075 121.35 42.5829 121.35 42.2299V36.8394C121.382 36.4865 121.157 36.2619 120.804 36.2619ZM117.82 41.524C116.762 41.524 116.024 40.7219 116.024 39.5668C116.024 38.4117 116.762 37.6095 117.82 37.6095C118.911 37.6095 119.649 38.4117 119.681 39.5668C119.681 40.6898 118.911 41.524 117.82 41.524ZM126.644 36.1336C125.714 36.1336 124.976 36.5507 124.623 37.2566V36.8715C124.623 36.4865 124.398 36.294 124.045 36.294H123.5C123.147 36.294 122.922 36.5186 122.922 36.8715V42.262C122.922 42.615 123.147 42.8396 123.5 42.8396H124.045C124.43 42.8396 124.623 42.615 124.623 42.262V39.6309C124.623 38.9251 124.976 37.6095 126.259 37.6095C126.965 37.6095 127.382 38.1871 127.382 39.1817V42.262C127.382 42.615 127.607 42.8396 127.96 42.8396H128.505C128.89 42.8396 129.083 42.615 129.083 42.262V39.0855C129.083 37.2245 128.184 36.1336 126.644 36.1336ZM134.762 41.6845L134.345 41.1711C134.281 41.1069 134.216 41.0427 134.12 41.0427C134.024 41.0427 133.96 41.0748 133.863 41.1711C133.831 41.2032 133.831 41.2032 133.799 41.2353C133.735 41.2994 133.543 41.4599 133.286 41.524C133.19 41.5561 133.126 41.5561 133.029 41.5561C132.644 41.524 132.452 41.2673 132.452 40.786V37.6416H134.024C134.249 37.6416 134.377 37.5133 134.377 37.2887V36.6148C134.377 36.4223 134.249 36.2619 134.024 36.2619H132.452V35.6843V35.0426C132.452 34.6897 132.259 34.4651 131.874 34.4651H131.329C130.976 34.4651 130.751 34.6897 130.751 35.0426V36.2619H130.077C129.885 36.2619 129.724 36.3902 129.724 36.6148V37.2887C129.724 37.5133 129.853 37.6416 130.077 37.6416H130.751V40.7219C130.751 42.7112 132.131 43 132.965 43C133.254 43 133.511 42.9679 133.735 42.9037C133.864 42.8717 133.992 42.8075 134.088 42.7433C134.281 42.647 134.441 42.5187 134.569 42.3904C134.634 42.3262 134.73 42.2299 134.794 42.1337C134.89 42.0053 134.89 41.8449 134.762 41.6845ZM113.81 41.6845L113.393 41.1711C113.328 41.1069 113.264 41.0427 113.2 41.0427C113.104 41.0427 113.04 41.0748 112.943 41.1711C112.911 41.2032 112.911 41.2032 112.879 41.2353C112.815 41.2994 112.622 41.4599 112.366 41.524C112.27 41.5561 112.205 41.5561 112.109 41.5561C111.724 41.524 111.532 41.2673 111.532 40.786V37.6416H113.104C113.328 37.6416 113.457 37.5133 113.457 37.2887V36.6148C113.457 36.4223 113.328 36.2619 113.104 36.2619H111.532V35.6843V35.0426C111.532 34.6897 111.339 34.4651 110.954 34.4651H110.409C110.056 34.4651 109.831 34.6897 109.831 35.0426V36.2619H109.157C108.965 36.2619 108.804 36.3902 108.804 36.6148V37.2887C108.804 37.5133 108.933 37.6416 109.157 37.6416H109.831V38.2192V40.7219C109.831 42.7112 111.211 43 112.045 43C112.334 43 112.59 42.9679 112.815 42.9037C112.943 42.8717 113.072 42.8075 113.168 42.7433C113.36 42.647 113.521 42.5187 113.649 42.3904C113.713 42.3262 113.81 42.2299 113.874 42.1337C113.97 42.0053 113.938 41.8449 113.81 41.6845Z" fill="#444545"/>
<path d="M58.8781 37.417C58.6214 37.417 58.461 37.4812 58.3326 37.5774C58.2043 37.6737 58.1722 37.8341 58.1401 38.0908H59.0064V39.3422H58.1401V42.9358H56.6642V39.3422H56.0866V38.0908H56.6642V38.0266C56.6642 37.417 56.8246 36.9678 57.1775 36.6148C57.5305 36.294 58.0439 36.1335 58.7177 36.1335C58.846 36.1335 58.9744 36.1335 59.0385 36.1335V37.417H58.8781Z" fill="#444545"/>
<path d="M61.6375 38.2833C61.9263 38.1229 62.2472 38.0266 62.6001 38.0266V39.631H62.1509C61.7659 39.631 61.445 39.7272 61.2204 39.8876C60.9958 40.0481 60.8995 40.3368 60.8995 40.754V42.9679H59.4236V38.1229H60.8995V39.0213C61.0921 38.7004 61.3488 38.4438 61.6375 38.2833Z" fill="#444545"/>
<path d="M66.5146 38.3154C66.8997 38.5079 67.1884 38.7967 67.413 39.1817C67.6376 39.5668 67.7339 39.9839 67.7339 40.4973C67.7339 41.0107 67.6376 41.4278 67.413 41.8128C67.1884 42.1978 66.8997 42.4866 66.5146 42.6791C66.1296 42.8717 65.7125 42.9679 65.2312 42.9679C64.7499 42.9679 64.3328 42.8717 63.9477 42.6791C63.5627 42.4866 63.2739 42.1978 63.0493 41.8128C62.8247 41.4278 62.7285 41.0107 62.7285 40.4973C62.7285 39.9839 62.8247 39.5668 63.0493 39.1817C63.2739 38.7967 63.5627 38.5079 63.9477 38.3154C64.3328 38.1229 64.7499 38.0266 65.2312 38.0266C65.7125 38.0266 66.1296 38.1229 66.5146 38.3154ZM64.4932 39.5989C64.3007 39.7914 64.2044 40.1122 64.2044 40.4973C64.2044 40.8823 64.3007 41.1711 64.4932 41.3957C64.6857 41.5882 64.9424 41.6845 65.1991 41.6845C65.4558 41.6845 65.7125 41.5882 65.905 41.3957C66.0975 41.2032 66.1938 40.8823 66.1938 40.4973C66.1938 40.1122 66.0975 39.8235 65.905 39.5989C65.7125 39.3743 65.4879 39.278 65.1991 39.278C64.9103 39.278 64.6857 39.4063 64.4932 39.5989Z" fill="#444545"/>
<path d="M75.9479 38.5721C76.3009 38.925 76.4613 39.4384 76.4613 40.1122V42.9358H74.9853V40.3047C74.9853 39.9839 74.8891 39.7593 74.7287 39.5989C74.5682 39.4384 74.3436 39.3422 74.0549 39.3422C73.7661 39.3422 73.5415 39.4384 73.349 39.6309C73.1885 39.8235 73.0923 40.0801 73.0923 40.401V42.9679H71.6163V40.3368C71.6163 40.016 71.52 39.7914 71.3596 39.6309C71.1992 39.4705 70.9746 39.3743 70.6858 39.3743C70.397 39.3743 70.1403 39.4705 69.9799 39.6309C69.8195 39.8235 69.7232 40.0801 69.7232 40.401V42.9679H68.2473V38.1229H69.7232V38.9571C69.8516 38.7004 70.0441 38.4758 70.3008 38.3154C70.5575 38.155 70.8783 38.0908 71.2313 38.0908C71.6163 38.0908 71.9372 38.1871 72.2259 38.3475C72.5147 38.5079 72.7393 38.7646 72.8677 39.0855C73.0281 38.7967 73.2527 38.54 73.5736 38.3796C73.8623 38.1871 74.1832 38.1229 74.5361 38.1229C75.1458 38.0266 75.595 38.1871 75.9479 38.5721Z" fill="#444545"/>
</svg>
